<?xml version="1.0" encoding="UTF-8"?>
<svg xmlns="http://www.w3.org/2000/svg" xmlns:xlink="http://www.w3.org/1999/xlink" width="80pt" height="80pt" viewBox="0 0 80 80" version="1.1">
<g id="surface1">
<path style=" stroke:none;fill-rule:nonzero;fill:rgb(84.705882%,63.529412%,0%);fill-opacity:1;" d="M 50.695312 46.113281 L 48.28125 46.113281 L 47.425781 45.289062 C 50.417969 41.804688 52.222656 37.28125 52.222656 32.359375 C 52.222656 21.390625 43.332031 12.5 32.359375 12.5 C 21.390625 12.5 12.5 21.390625 12.5 32.359375 C 12.5 43.332031 21.390625 52.222656 32.359375 52.222656 C 37.28125 52.222656 41.804688 50.417969 45.289062 47.425781 L 46.113281 48.28125 L 46.113281 50.695312 L 61.390625 65.945312 L 65.945312 61.390625 Z M 32.359375 46.113281 C 24.753906 46.113281 18.609375 39.96875 18.609375 32.359375 C 18.609375 24.753906 24.753906 18.609375 32.359375 18.609375 C 39.96875 18.609375 46.113281 24.753906 46.113281 32.359375 C 46.113281 39.96875 39.96875 46.113281 32.359375 46.113281 Z M 32.359375 46.113281 "/>
</g>
</svg>
